# xmcd
#
# Track frame offsets: 
#        150
#        19810
#        47778
#        83040
#        127188
#        148800
#        179997
#        233403
#        254630
#
# Disc length: 3788 seconds
#
# Revision: 3
# Processed by: cddbd v1.5.2PL0 Copyright (c) Steve Scherf et al.
# Submitted via: ExactAudioCopyFreeDBPlugin 1.0
#
DISCID=840eca09
DTITLE=Danny Gatton - Joey De Francesco - Relentless
DYEAR=1994
DGENRE=Blues
TTITLE0=Fine
TTITLE1=Broadway
TTITLE2=Kindred Spirits
TTITLE3=The Chess Players
TTITLE4=Gearheads
TTITLE5=Blues on the Half Shell
TTITLE6=The Pits
TTITLE7=Big Mo
TTITLE8=Well You Needn't
EXTD=
EXTT0=
EXTT1=
EXTT2=
EXTT3=
EXTT4=
EXTT5=
EXTT6=
EXTT7=
EXTT8=
PLAYORDER=
